<?xml version="1.0" encoding="utf-8"?>
<!-- Uploaded to: SVG Repo, www.svgrepo.com, Generator: SVG Repo Mixer Tools -->
<svg width="800px" height="800px" viewBox="0 0 1024 1024" class="icon"  version="1.1" xmlns="http://www.w3.org/2000/svg"><path d="M166.016 204.992a76.8 75.712 0 1 0 153.6 0 76.8 75.712 0 1 0-153.6 0Z" fill="#E2C447" /><path d="M242.816 300.352a96 96 0 0 1-96.32-95.296 96 96 0 0 1 96.32-95.488c53.184 0 96.512 42.816 96.512 95.488a96 96 0 0 1-96.512 95.296z m0-151.424a56.64 56.64 0 0 0-57.024 56.128c0 30.784 25.536 56 57.024 56a56.768 56.768 0 0 0 57.216-56c0-30.976-25.6-56.128-57.216-56.128z" fill="#DF8C28" /><path d="M213.952 272.32h57.984v67.392h-57.984z" fill="#DF8C28" /><path d="M710.72 204.992a76.672 75.712 0 1 0 153.344 0 76.672 75.712 0 1 0-153.344 0Z" fill="#E2C447" /><path d="M787.392 300.352a96 96 0 0 1-96.448-95.296c0-52.672 43.264-95.488 96.448-95.488s96.384 42.816 96.384 95.488c0 52.544-43.2 95.296-96.384 95.296z m0-151.424a56.704 56.704 0 0 0-57.152 56.128c0 30.784 25.6 56 57.152 56a56.64 56.64 0 0 0 57.024-56 56.704 56.704 0 0 0-57.024-56.128z" fill="#DF8C28" /><path d="M758.4 272.32h57.984v67.392h-57.984z" fill="#DF8C28" /><path d="M70.912 313.664h891.584v198.656H70.912z" fill="#D0431F" /><path d="M205.952 475.968H137.728l62.912-125.824h68.224zM377.024 475.968H308.864l62.912-125.824h68.224zM548.16 475.968H480l62.912-125.824h68.096zM719.232 475.968h-68.16l62.848-125.824h68.224zM887.68 350.144h-2.624l-62.848 125.824h65.472z" fill="#FFFFFF" /><path d="M213.952 512.384H291.2v415.36H213.952zM743.488 512.384h77.312v415.36h-77.312z" fill="#A18F24" /><path d="M291.2 721.728h452.288v38.656H291.2z" fill="#794E22" /></svg>