<?xml version="1.0" encoding="iso-8859-1"?>
<!-- Uploaded to: SVG Repo, www.svgrepo.com, Generator: SVG Repo Mixer Tools -->
<svg version="1.1" id="Layer_1" xmlns="http://www.w3.org/2000/svg" xmlns:xlink="http://www.w3.org/1999/xlink" 
	 viewBox="0 0 512 512" xml:space="preserve">
<circle style="fill:#4AB8A1;" cx="256" cy="256" r="256"/>
<g>
	<path style="fill:#242424;" d="M105.808,511.5c-1.132,0-2.28-0.244-3.372-0.752c-4.004-1.868-5.74-6.624-3.876-10.628l78-167.5
		c1.864-4.004,6.624-5.752,10.628-3.88c4.004,1.868,5.74,6.624,3.876,10.628l-78,167.5C111.708,509.788,108.82,511.5,105.808,511.5z
		"/>
	<path style="fill:#242424;" d="M407.816,511.5c-2.988,0-5.852-1.68-7.224-4.556l-80-167.5c-1.908-3.988-0.22-8.76,3.772-10.672
		c3.984-1.9,8.756-0.212,10.664,3.772l80,167.5c1.908,3.988,0.22,8.76-3.772,10.668C410.148,511.252,408.976,511.5,407.816,511.5z"
		/>
	<path style="fill:#242424;" d="M331.812,360h-152c-4.416,0-8-3.584-8-8s3.584-8,8-8h152c4.416,0,8,3.584,8,8
		S336.228,360,331.812,360z"/>
	<path style="fill:#242424;" d="M347.812,392h-184c-4.416,0-8-3.584-8-8s3.584-8,8-8h184c4.416,0,8,3.584,8,8
		S352.228,392,347.812,392z"/>
	<path style="fill:#242424;" d="M363.812,424h-212c-4.416,0-8-3.584-8-8s3.584-8,8-8h212c4.416,0,8,3.584,8,8
		S368.228,424,363.812,424z"/>
	<path style="fill:#242424;" d="M375.812,456h-244c-4.416,0-8-3.584-8-8s3.584-8,8-8h244c4.416,0,8,3.584,8,8
		S380.228,456,375.812,456z"/>
	<path style="fill:#242424;" d="M391.812,492h-268c-4.416,0-8-3.584-8-8s3.584-8,8-8h268c4.416,0,8,3.584,8,8
		S396.228,492,391.812,492z"/>
</g>
<path id="SVGCleanerId_0" style="fill:#FFD464;" d="M147.812,196v80c0,56,64,92,108,92s108-36,108-92v-80H147.812z"/>
<g>
	<path id="SVGCleanerId_0_1_" style="fill:#FFD464;" d="M147.812,196v80c0,56,64,92,108,92s108-36,108-92v-80H147.812z"/>
</g>
<g>
	<path style="fill:#263740;" d="M315.812,80c-1.024,0-2.048-0.392-2.828-1.172L306.156,72H205.468l-6.828,6.828
		c-1.564,1.564-4.092,1.564-5.656,0s-1.564-4.092,0-5.656L202.156,64h107.312l9.172,9.172c1.564,1.564,1.564,4.092,0,5.656
		C317.86,79.608,316.836,80,315.812,80z"/>
	<path style="fill:#263740;" d="M255.812,96c-2.208,0-4-1.792-4-4V68c0-2.208,1.792-4,4-4s4,1.792,4,4v24
		C259.812,94.208,258.02,96,255.812,96z"/>
</g>
<path style="fill:#F2C95F;" d="M351.812,124v152c0,53.504-58.416,88.728-102,91.756c2.032,0.14,4.04,0.244,6,0.244
	c44,0,108-36,108-92V124H351.812z"/>
<path style="fill:#263740;" d="M332.212,92h-76.4h-76.396c-17.352,0-31.604,14.328-31.604,32v75.16
	c14.952,42.56,69.028,68.84,108,68.84s93.048-26.28,108-68.84V124C363.812,106.328,349.564,92,332.212,92z"/>
<path style="fill:#F5F5F5;" d="M255.812,252c-33.476,0-78.684-22.772-92-55.748V124c0-8.824,7-16,15.604-16h152.788
	c8.604,0,15.604,7.176,15.604,16v72.252C334.496,229.228,289.288,252,255.812,252z"/>
<path style="fill:#263740;" d="M331.812,128c0,6.6-5.4,12-12,12h-128c-6.6,0-12-5.4-12-12l0,0c0-6.6,5.4-12,12-12h128
	C326.416,116,331.812,121.4,331.812,128L331.812,128z"/>
<rect x="251.812" y="88" style="fill:#1E2C33;" width="8" height="4"/>
<path style="fill:#263740;" d="M227.812,284h-48c-7.412,0-13.632-5.132-15.428-12c-0.336,1.288-0.572,22.608-0.572,24
	c0,8.8,7.2,16,16,16h48c4.4,0,8-3.6,8-8v-12C235.812,287.6,232.212,284,227.812,284z"/>
<path style="fill:#F5F5F5;" d="M179.812,304c-4.412,0-8-3.584-8-8c0-0.712,0.02-2.764,0.056-5.364c2.5,0.888,5.18,1.364,7.944,1.364
	h48v12H179.812z"/>
<path style="fill:#263740;" d="M283.812,284h48c7.416,0,13.632-5.132,15.428-12c0.336,1.288,0.572,22.608,0.572,24
	c0,8.8-7.2,16-16,16h-48c-4.4,0-8-3.6-8-8v-12C275.812,287.6,279.416,284,283.812,284z"/>
<path style="fill:#F5F5F5;" d="M331.812,304c4.416,0,8-3.584,8-8c0-0.712-0.02-2.764-0.056-5.364
	c-2.5,0.884-5.176,1.364-7.944,1.364h-48v12H331.812z"/>
</svg>