<?xml version="1.0" encoding="iso-8859-1"?>
<!-- Uploaded to: SVG Repo, www.svgrepo.com, Generator: SVG Repo Mixer Tools -->
<svg version="1.1" id="Layer_1" xmlns="http://www.w3.org/2000/svg" xmlns:xlink="http://www.w3.org/1999/xlink" 
	 viewBox="0 0 504.986 504.986" xml:space="preserve">
<path style="fill:#FFFFFF;" d="M436.252,252.493c0-25.951,16.833-47.693,40.679-55.408v-63.123H28.055v63.123
	c23.847,7.014,40.679,29.458,40.679,55.408s-16.833,47.693-40.679,55.408v63.123h448.877v-63.123
	C453.085,300.186,436.252,278.444,436.252,252.493z"/>
<path style="fill:#194F82;" d="M491.66,223.036c7.715-0.701,13.326-6.312,13.326-14.027v-88.373c0-7.715-6.312-14.027-14.027-14.027
	H14.027C6.312,106.608,0,112.921,0,120.636v88.373c0,7.715,5.611,13.326,13.326,14.027c15.43,0.701,27.353,14.027,27.353,29.458
	s-11.923,28.756-27.353,29.458C5.611,282.652,0,288.263,0,295.978v88.373c0,7.715,6.312,14.027,14.027,14.027h476.931
	c7.715,0,14.027-6.312,14.027-14.027v-88.373c0-7.715-5.611-13.326-13.326-14.027c-15.43-0.701-27.353-14.027-27.353-29.458
	S476.23,223.737,491.66,223.036z M476.932,370.323H28.055V307.2c23.847-7.014,40.679-29.458,40.679-55.408
	s-16.833-47.693-40.679-55.408V133.26h448.877v63.123c-23.847,7.014-40.679,29.458-40.679,55.408s16.833,47.693,40.679,55.408
	V370.323z"/>
<path style="fill:#56ACE0;" d="M56.11,342.268v-16.833c24.548-15.43,40.679-42.082,40.679-72.942s-16.132-57.512-40.679-72.942
	v-16.833h392.767v16.833c-24.548,15.43-40.679,42.082-40.679,72.942s16.132,57.512,40.679,72.942v16.833L56.11,342.268
	L56.11,342.268z"/>
<g>
	<polygon style="fill:#194F82;" points="108.011,223.737 119.233,223.737 119.233,185.162 132.559,185.162 132.559,175.342 
		94.685,175.342 94.685,185.162 108.011,185.162 	"/>
	<path style="fill:#194F82;" d="M151.496,208.307h7.715l10.521,15.43h13.326l-12.625-16.833c6.312-2.104,9.118-7.014,9.118-14.729
		c0-5.611,0-16.132-21.041-16.132h-18.236v48.395h10.521v-16.132H151.496z M151.496,185.162h7.715c9.118,0,9.118,4.208,9.118,7.014
		s0,7.715-9.819,7.715h-7.715v-14.729H151.496z"/>
	<path style="fill:#194F82;" d="M200.592,213.216h20.34l4.208,10.521h11.222l-21.041-48.395H204.8l-21.041,48.395h11.222
		L200.592,213.216z M210.411,190.071l6.312,14.027H204.8L210.411,190.071z"/>
	<rect x="241.973" y="175.342" style="fill:#194F82;" width="10.521" height="48.395"/>
	<polygon style="fill:#194F82;" points="298.082,206.904 274.937,175.342 264.416,175.342 264.416,223.737 275.638,223.737 
		275.638,193.578 298.082,223.737 309.304,223.737 309.304,175.342 298.082,175.342 	"/>
	<path style="fill:#194F82;" d="M363.31,215.321c7.014,0,12.625,5.611,12.625,12.625c0,6.312,5.611,11.923,11.923,11.923
		c6.312,0,11.923-5.611,11.923-11.923c0-16.132-10.521-29.458-24.548-34.367v-7.014c0-6.312-5.611-11.923-11.923-11.923
		c-6.312,0-11.923,5.611-11.923,11.923v7.014c-14.027,4.91-24.548,18.236-24.548,34.367c0,20.34,16.132,36.471,36.471,36.471
		c7.014,0,12.625,5.611,12.625,12.625s-5.611,12.625-12.625,12.625s-12.625-5.611-12.625-12.625c0-6.312-5.611-11.923-11.923-11.923
		c-6.312,0-11.923,5.611-11.923,11.923c0,16.132,10.521,29.458,24.548,34.367v7.014c0,6.312,5.611,11.923,11.923,11.923
		c6.312,0,11.923-5.611,11.923-11.923v-7.014c14.027-4.91,24.548-18.236,24.548-34.367c0-20.34-16.132-36.471-36.471-36.471
		c-7.014,0-12.625-5.611-12.625-12.625S356.296,215.321,363.31,215.321z"/>
	<path style="fill:#194F82;" d="M300.186,246.181H120.636c-7.715,0-14.027,6.312-14.027,14.027s6.312,14.027,14.027,14.027h178.849
		c7.715,0,14.027-6.312,14.027-14.027S307.901,246.181,300.186,246.181z"/>
	<path style="fill:#194F82;" d="M300.186,302.992H120.636c-7.715,0-14.027,6.312-14.027,14.027s6.312,14.027,14.027,14.027h178.849
		c7.715,0,14.027-6.312,14.027-14.027S307.901,302.992,300.186,302.992z"/>
</g>
</svg>